<?xml version="1.0" encoding="UTF-8"?>
<svg version="1.1" xmlns="http://www.w3.org/2000/svg" width="758" height="758">
<path d="M0 0 C1.74506836 -0.00855011 1.74506836 -0.00855011 3.52539062 -0.01727295 C5.98273832 -0.02667188 8.44009832 -0.03323646 10.89746094 -0.03710938 C14.55948597 -0.04670336 18.22092138 -0.07773025 21.8828125 -0.109375 C42.81091985 -0.20355042 63.56173268 1.44504519 84.125 5.453125 C85.76625854 5.76672974 85.76625854 5.76672974 87.44067383 6.08666992 C142.77281622 16.99995716 195.37189465 39.44330309 240.625 73.203125 C241.16817871 73.60740723 241.71135742 74.01168945 242.27099609 74.42822266 C265.72593718 91.97249078 288.62213638 112.04112411 306.625 135.203125 C308.20488537 137.06023046 309.7884403 138.91421829 311.375 140.765625 C329.95494705 163.08457068 345.05551507 188.22053635 357.70166016 214.30761719 C358.55182954 216.05291468 359.42150541 217.78867442 360.29296875 219.5234375 C381.72232905 263.40017996 394.63660107 314.75132194 394.828125 363.578125 C394.83382507 364.74150391 394.83952515 365.90488281 394.84539795 367.10351562 C394.85479688 369.56086332 394.86136146 372.01822332 394.86523438 374.47558594 C394.87482836 378.13761097 394.90585525 381.79904638 394.9375 385.4609375 C395.03167542 406.38904485 393.38307981 427.13985768 389.375 447.703125 C389.06139526 449.34438354 389.06139526 449.34438354 388.74145508 451.01879883 C377.82816784 506.35094122 355.38482191 558.95001965 321.625 604.203125 C321.22071777 604.74630371 320.81643555 605.28948242 320.39990234 605.84912109 C302.85563422 629.30406218 282.78700089 652.20026138 259.625 670.203125 C257.76789454 671.78301037 255.91390671 673.3665653 254.0625 674.953125 C231.74355432 693.53307205 206.60758865 708.63364007 180.52050781 721.27978516 C178.77521032 722.12995454 177.03945058 722.99963041 175.3046875 723.87109375 C131.42794504 745.30045405 80.07680306 758.21472607 31.25 758.40625 C30.08662109 758.41195007 28.92324219 758.41765015 27.72460938 758.42352295 C25.26726168 758.43292188 22.80990168 758.43948646 20.35253906 758.44335938 C16.69051403 758.45295336 13.02907862 758.48398025 9.3671875 758.515625 C-11.56091985 758.60980042 -32.31173268 756.96120481 -52.875 752.953125 C-54.51625854 752.63952026 -54.51625854 752.63952026 -56.19067383 752.31958008 C-111.52281622 741.40629284 -164.12189465 718.96294691 -209.375 685.203125 C-209.91817871 684.79884277 -210.46135742 684.39456055 -211.02099609 683.97802734 C-234.47593718 666.43375922 -257.37213638 646.36512589 -275.375 623.203125 C-276.95488537 621.34601954 -278.5384403 619.49203171 -280.125 617.640625 C-298.70494705 595.32167932 -313.80551507 570.18571365 -326.45166016 544.09863281 C-327.30182954 542.35333532 -328.17150541 540.61757558 -329.04296875 538.8828125 C-350.47232905 495.00607004 -363.38660107 443.65492806 -363.578125 394.828125 C-363.58382507 393.66474609 -363.58952515 392.50136719 -363.59539795 391.30273438 C-363.60479688 388.84538668 -363.61136146 386.38802668 -363.61523438 383.93066406 C-363.62482836 380.26863903 -363.65585525 376.60720362 -363.6875 372.9453125 C-363.78167542 352.01720515 -362.13307981 331.26639232 -358.125 310.703125 C-357.91593018 309.60895264 -357.70686035 308.51478027 -357.49145508 307.38745117 C-346.57816784 252.05530878 -324.13482191 199.45623035 -290.375 154.203125 C-289.76857666 153.38835693 -289.76857666 153.38835693 -289.14990234 152.55712891 C-271.60563422 129.10218782 -251.53700089 106.20598862 -228.375 88.203125 C-226.51789454 86.62323963 -224.66390671 85.0396847 -222.8125 83.453125 C-200.49355432 64.87317795 -175.35758865 49.77260993 -149.27050781 37.12646484 C-147.52521032 36.27629546 -145.78945058 35.40661959 -144.0546875 34.53515625 C-100.17794504 13.10579595 -48.82680306 0.19152393 0 0 Z " fill="#FCFDFD" transform="translate(363.375,-0.203125)"/>
<path d="M0 0 C2.23214727 1.46812371 4.0726497 2.88089502 6.0625 4.625 C21.67600684 17.52228333 39.00861919 27.79616636 57 37 C57.85529297 37.43795898 58.71058594 37.87591797 59.59179688 38.32714844 C73.98044932 45.60968096 88.84641274 51.51137161 104 57 C105.48258301 57.53753906 105.48258301 57.53753906 106.99511719 58.0859375 C126.67625469 65.12957366 146.94074286 70.72412681 167.46875 74.6953125 C168.50151566 74.89563583 168.50151566 74.89563583 169.55514526 75.1000061 C172.85598292 75.73461876 176.15799976 76.34322249 179.46923828 76.92236328 C181.23630127 77.24696533 181.23630127 77.24696533 183.0390625 77.578125 C184.07240723 77.75762695 185.10575195 77.93712891 186.17041016 78.12207031 C189.82894644 79.25719512 191.4202638 80.10353513 194 83 C194.76081218 86.75141294 194.65128656 90.46911754 194.59936523 94.28491211 C194.60330795 95.43860291 194.60725067 96.5922937 194.61131287 97.78094482 C194.61804773 101.6135137 194.58876314 105.44490108 194.55859375 109.27734375 C194.55433912 111.95986227 194.55186372 114.64232819 194.55152893 117.32484436 C194.54689349 122.97005091 194.52325227 128.61492158 194.48706055 134.26000977 C194.44582786 140.70679893 194.42777548 147.15328313 194.4244408 153.60019678 C194.42077465 160.5363284 194.40176064 167.47235593 194.37732053 174.40844274 C194.37121156 176.36462074 194.36772322 178.32080637 194.36428642 180.27699089 C194.30599938 203.64983682 193.48266479 227.08124665 190.1875 250.25 C190.01355713 251.48919189 189.83961426 252.72838379 189.66040039 254.00512695 C189.12995595 257.67405395 188.57310798 261.33751369 188 265 C187.83693359 266.0504248 187.67386719 267.10084961 187.50585938 268.18310547 C179.09422201 320.20288275 155.86172683 370.71310393 122 411 C121.50999512 411.59006836 121.01999023 412.18013672 120.51513672 412.78808594 C109.98926391 425.41913331 98.63693323 437.45320592 86 448 C84.61167969 449.20462891 84.61167969 449.20462891 83.1953125 450.43359375 C60.46730905 470.09447179 35.19302528 486.55780547 9.0625 501.3125 C8.24040039 501.786875 7.41830078 502.26125 6.57128906 502.75 C2.2679002 505.13341537 -0.96739476 506.90641008 -6 506 C-8.66258579 504.87139025 -11.0526985 503.71351321 -13.5625 502.3125 C-14.29355957 501.91385742 -15.02461914 501.51521484 -15.77783203 501.10449219 C-55.3850559 479.18633474 -94.78348187 450.98032103 -124 416 C-124.66128906 415.21625 -125.32257813 414.4325 -126.00390625 413.625 C-137.22595596 400.13445008 -147.16614249 386.16489835 -156 371 C-156.62986816 369.93773193 -156.62986816 369.93773193 -157.27246094 368.85400391 C-196.86013228 301.90108434 -200.57539513 226.13852539 -200.44224924 150.51504689 C-200.43385225 144.65955264 -200.45187282 138.80434416 -200.4754414 132.94890308 C-200.49756212 127.23603133 -200.50424976 121.52328579 -200.49836498 115.81037426 C-200.49500892 112.42590268 -200.49732884 109.04169179 -200.51461601 105.65725708 C-200.52942107 101.92093033 -200.51893782 98.18551598 -200.50170898 94.44921875 C-200.51137695 93.34196442 -200.52104492 92.23471008 -200.53100586 91.09390259 C-200.52117172 90.08024628 -200.51133759 89.06658997 -200.50120544 88.0222168 C-200.50099616 87.14349411 -200.50078688 86.26477142 -200.50057125 85.35942078 C-199.83525654 82.2234889 -198.42981547 81.01823576 -196 79 C-194.10186768 78.23786926 -194.10186768 78.23786926 -192.10644531 77.86254883 C-190.96875954 77.63577454 -190.96875954 77.63577454 -189.80809021 77.40441895 C-188.98970169 77.25678101 -188.17131317 77.10914307 -187.328125 76.95703125 C-186.46562637 76.78739868 -185.60312775 76.61776611 -184.7144928 76.44299316 C-182.85992995 76.07824601 -181.00416484 75.7195695 -179.14736938 75.36636353 C-153.9256604 70.5449608 -128.81823038 64.78067758 -105 55 C-103.4854437 54.41130559 -101.9697428 53.82555045 -100.453125 53.2421875 C-70.22515447 41.53372367 -40.66386128 27.44733746 -15.28515625 7.03125 C-14.4029541 6.32790527 -14.4029541 6.32790527 -13.50292969 5.61035156 C-11.93188518 4.34607369 -10.38104155 3.05680527 -8.83203125 1.765625 C-5.44203945 -0.34785954 -3.92196082 -0.72139694 0 0 Z " fill="#2399D7" transform="translate(382,126)"/>
<path d="M0 0 C0.66 0 1.32 0 2 0 C2 0.66 2 1.32 2 2 C1.34 2 0.68 2 0 2 C0.10724892 19.51550188 0.2200121 37.0309584 0.33933926 54.54638195 C0.39461639 62.67910017 0.4480893 70.81182279 0.49731445 78.94458008 C0.54022383 86.03311639 0.58651878 93.12162113 0.63687855 100.21010858 C0.66342512 103.96336223 0.68827673 107.71660985 0.70907402 111.46990013 C0.73235466 115.65991237 0.76319379 119.84983629 0.79467773 124.03979492 C0.8004332 125.28416824 0.80618866 126.52854156 0.81211853 127.81062317 C0.82190735 128.95340729 0.83169617 130.09619141 0.84178162 131.27360535 C0.84823417 132.2645328 0.85468672 133.25546026 0.8613348 134.27641582 C0.99737697 136.94848 1.43790723 139.38906782 2 142 C2.07790887 143.83848168 2.10793615 145.67942827 2.09765625 147.51953125 C2.09282227 149.0519043 2.09282227 149.0519043 2.08789062 150.61523438 C2.07951172 151.67033203 2.07113281 152.72542969 2.0625 153.8125 C2.05798828 154.88693359 2.05347656 155.96136719 2.04882812 157.06835938 C2.03707729 159.71229683 2.02064787 162.35611952 2 165 C1.67 165 1.34 165 1 165 C-2.74053806 133.57150237 -2.43193526 102.05129645 -2.32916343 70.45852053 C-2.31130547 64.59566645 -2.31225704 58.7329271 -2.3177436 52.87005419 C-2.32342667 46.46593882 -2.31782563 40.06188433 -2.30657005 33.65777779 C-2.30194398 30.95568267 -2.30104103 28.25362501 -2.3031559 25.55152702 C-2.30352478 21.8128119 -2.29096815 18.07436787 -2.2746582 14.33569336 C-2.27713562 13.22484375 -2.27961304 12.11399414 -2.28216553 10.96948242 C-2.27508072 9.95720078 -2.26799591 8.94491913 -2.26069641 7.90196228 C-2.25761711 6.58249556 -2.25761711 6.58249556 -2.25447559 5.23637295 C-2 3 -2 3 0 0 Z " fill="#57A4CD" transform="translate(184,206)"/>
<path d="M0 0 C0.66 0 1.32 0 2 0 C-1.24878894 11.37076127 -7.08643126 21.81331559 -13 32 C-13.33 30.68 -13.66 29.36 -14 28 C-13.34 28 -12.68 28 -12 28 C-12 26.68 -12 25.36 -12 24 C-11.34 24 -10.68 24 -10 24 C-10 22.68 -10 21.36 -10 20 C-9.34 20 -8.68 20 -8 20 C-7.01 16.535 -7.01 16.535 -6 13 C-5.34 13 -4.68 13 -4 13 C-4 11.35 -4 9.7 -4 8 C-3.34 8 -2.68 8 -2 8 C-2 6.68 -2 5.36 -2 4 C-1.34 4 -0.68 4 0 4 C0 2.68 0 1.36 0 0 Z " fill="#4199C9" transform="translate(546,463)"/>
<path d="M0 0 C2.81316358 0.30727025 5.62542519 0.62055152 8.4375 0.9375 C9.23994141 1.02451172 10.04238281 1.11152344 10.86914062 1.20117188 C16.88671875 1.88671875 16.88671875 1.88671875 18 3 C19.155 3.165 20.31 3.33 21.5 3.5 C25 4 25 4 26 5 C28.32817964 5.36760731 30.6618385 5.70241581 33 6 C33 6.66 33 7.32 33 8 C25.34660679 7.51728668 18.25755684 5.96159796 10.875 3.9375 C9.823125 3.65583984 8.77125 3.37417969 7.6875 3.08398438 C5.12304475 2.3962441 2.56072069 1.70149275 0 1 C0 0.67 0 0.34 0 0 Z " fill="#CEEFF9" transform="translate(514,192)"/>
<path d="M0 0 C2.63036363 4.73465454 3.12761416 9.1570653 3.09765625 14.51953125 C3.09282227 16.0519043 3.09282227 16.0519043 3.08789062 17.61523438 C3.07951172 18.67033203 3.07113281 19.72542969 3.0625 20.8125 C3.05798828 21.88693359 3.05347656 22.96136719 3.04882812 24.06835938 C3.03707729 26.71229683 3.02064787 29.35611952 3 32 C2.67 32 2.34 32 2 32 C-0.38776806 9.19872014 -0.38776806 9.19872014 0 0 Z " fill="#429CCC" transform="translate(183,339)"/>
<path d="M0 0 C5.06040549 0.63888887 9.28011534 2.86279277 13.8125 5.0625 C14.60076172 5.43955078 15.38902344 5.81660156 16.20117188 6.20507812 C18.13652473 7.13170161 20.06859549 8.06517467 22 9 C18.37878255 10.20707248 17.18232791 9.37499469 13.8359375 7.8359375 C9.75144215 5.97618855 6.50128863 5 2 5 C1.34 3.35 0.68 1.7 0 0 Z " fill="#3799CA" transform="translate(438,164)"/>
<path d="M0 0 C0.66 0.99 1.32 1.98 2 3 C1.154375 2.71125 0.30875 2.4225 -0.5625 2.125 C-4.52378739 1.98095319 -4.89271156 2.39840497 -7.6875 4.9375 C-8.24824219 5.50339844 -8.80898438 6.06929687 -9.38671875 6.65234375 C-11 8 -11 8 -14 8 C-14 8.66 -14 9.32 -14 10 C-14.66 10 -15.32 10 -16 10 C-16 10.66 -16 11.32 -16 12 C-17.32 11.67 -18.64 11.34 -20 11 C-17.80523809 9.14798173 -15.5966142 7.31930982 -13.375 5.5 C-12.75753906 4.97535156 -12.14007813 4.45070312 -11.50390625 3.91015625 C-7.69113702 0.81980645 -5.1283143 -1.02265505 0 0 Z " fill="#3999C9" transform="translate(382,126)"/>
<path d="M0 0 C0.66 0.33 1.32 0.66 2 1 C0.60648806 3.78702389 -1.14470897 4.1857454 -3.9375 5.5 C-7.7751351 7.30611242 -7.7751351 7.30611242 -11 10 C-15.12199405 11.45033124 -17.8172493 12.29904812 -22 11 C-21.44014404 10.73783691 -20.88028809 10.47567383 -20.3034668 10.20556641 C-17.76363475 9.01453452 -15.22555644 7.81981069 -12.6875 6.625 C-11.80642578 6.2125 -10.92535156 5.8 -10.01757812 5.375 C-9.17001953 4.97539062 -8.32246094 4.57578125 -7.44921875 4.1640625 C-6.27879028 3.61419678 -6.27879028 3.61419678 -5.0847168 3.05322266 C-2.78753707 1.94495638 -2.78753707 1.94495638 0 0 Z " fill="#3C9BC9" transform="translate(330,157)"/>
<path d="M0 0 C2.48982535 2.27745789 4.10368997 4.62335238 5.75 7.5625 C6.19859375 8.34753906 6.6471875 9.13257813 7.109375 9.94140625 C7.40328125 10.62074219 7.6971875 11.30007813 8 12 C7.67 12.66 7.34 13.32 7 14 C4.5625 13.25 4.5625 13.25 2 12 C1.25 10.375 1.25 10.375 1 8 C0.81273535 6.5833022 0.62521704 5.16663792 0.4375 3.75 C0.293125 2.5125 0.14875 1.275 0 0 Z " fill="#DCF4FA" transform="translate(218,483)"/>
<path d="M0 0 C-3.12092434 1.84033976 -6.24738217 3.67106256 -9.375 5.5 C-10.26445312 6.02464844 -11.15390625 6.54929688 -12.0703125 7.08984375 C-12.92109375 7.58613281 -13.771875 8.08242187 -14.6484375 8.59375 C-15.82672119 9.28500977 -15.82672119 9.28500977 -17.02880859 9.99023438 C-19 11 -19 11 -21 11 C-21 10.34 -21 9.68 -21 9 C-19.05859375 7.6328125 -19.05859375 7.6328125 -16.4375 6.125 C-15.07044922 5.33802734 -15.07044922 5.33802734 -13.67578125 4.53515625 C-12.79277344 4.02855469 -11.90976562 3.52195313 -11 3 C-10.31292969 2.56558594 -9.62585938 2.13117188 -8.91796875 1.68359375 C-5.46313517 -0.4766181 -3.87386533 -1.28290345 0 0 Z " fill="#DEF9FD" transform="translate(349,147)"/>
<path d="M0 0 C0.9178125 0.5053125 1.835625 1.010625 2.78125 1.53125 C11.85807525 6.50412151 11.85807525 6.50412151 22 7 C21.67 7.99 21.34 8.98 21 10 C19.26969709 9.71515154 17.54079286 9.42180062 15.8125 9.125 C14.84957031 8.96257813 13.88664062 8.80015625 12.89453125 8.6328125 C10.08967396 8.01960483 7.62775253 7.14333657 5 6 C5 5.34 5 4.68 5 4 C4.01 4 3.02 4 2 4 C2 3.34 2 2.68 2 2 C1.34 2 0.68 2 0 2 C0 1.34 0 0.68 0 0 Z " fill="#DAF5FD" transform="translate(362,624)"/>
<path d="M0 0 C0.99 0 1.98 0 3 0 C6 5.75 6 5.75 6 8 C7.32 8.33 8.64 8.66 10 9 C9.67 10.65 9.34 12.3 9 14 C5.25876024 9.7045025 2.65848126 5.00099548 0 0 Z " fill="#429CCD" transform="translate(229,501)"/>
<path d="M0 0 C0.66 0.33 1.32 0.66 2 1 C-1.27429093 5.33362035 -3.76986166 8.02416996 -9 10 C-9.66 9.67 -10.32 9.34 -11 9 C-7.37 6.03 -3.74 3.06 0 0 Z " fill="#DDF6FC" transform="translate(453,585)"/>
<path d="M0 0 C0.66 0.33 1.32 0.66 2 1 C-3.81551608 5.52317917 -7.55716899 7.8119452 -15 7 C-12.0356239 5.02374927 -9.21212254 3.70113094 -5.9375 2.3125 C-4.87402344 1.85488281 -3.81054688 1.39726562 -2.71484375 0.92578125 C-1.81894531 0.62027344 -0.92304688 0.31476563 0 0 Z " fill="#439CCB" transform="translate(295,174)"/>
<path d="M0 0 C-6.28453206 3.32797915 -10.88658735 4.45164525 -18 4 C-15.06836714 2.44596314 -12.16634776 1.30198368 -9 0.3125 C-8.154375 0.04050781 -7.30875 -0.23148438 -6.4375 -0.51171875 C-3.8767932 -1.02468085 -2.44171002 -0.84216387 0 0 Z " fill="#4EA2D0" transform="translate(257,190)"/>
<path d="M0 0 C0.33 0 0.66 0 1 0 C1.34615998 5.65394631 0.43425238 9.03006806 -2 14 C-2.66 14 -3.32 14 -4 14 C-3.52188823 12.22888156 -3.0424722 10.45811517 -2.5625 8.6875 C-2.29566406 7.70136719 -2.02882813 6.71523438 -1.75390625 5.69921875 C-1.21920575 3.78482474 -0.62855462 1.88566385 0 0 Z " fill="#CFF0FA" transform="translate(559,433)"/>
<path d="M0 0 C5.86809507 0.52393706 10.54873741 1.76108858 16 4 C12.38766999 5.27847309 9.95393249 4.71332411 6.3125 3.6875 C5.33925781 3.42324219 4.36601562 3.15898437 3.36328125 2.88671875 C1 2 1 2 0 0 Z " fill="#459CCA" transform="translate(491,186)"/>
<path d="M0 0 C0.33 0.66 0.66 1.32 1 2 C-4 8.57142857 -4 8.57142857 -9 10 C-8.06409496 8.8944811 -7.12620142 7.79064547 -6.1875 6.6875 C-5.66542969 6.07261719 -5.14335937 5.45773437 -4.60546875 4.82421875 C-3.12827531 3.14575321 -1.59960869 1.56117966 0 0 Z " fill="#E4FAFE" transform="translate(487,555)"/>
<path d="M0 0 C0.66 0 1.32 0 2 0 C2 0.66 2 1.32 2 2 C2.66 2 3.32 2 4 2 C4 2.66 4 3.32 4 4 C4.66 4 5.32 4 6 4 C6 4.66 6 5.32 6 6 C6.99 6.33 7.98 6.66 9 7 C8.34 8.32 7.68 9.64 7 11 C5.83051998 9.35616456 4.6644855 7.70987731 3.5 6.0625 C2.8503125 5.14597656 2.200625 4.22945312 1.53125 3.28515625 C0 1 0 1 0 0 Z " fill="#419CCD" transform="translate(238,515)"/>
<path d="M0 0 C0.99 0.66 1.98 1.32 3 2 C2.113125 2.433125 1.22625 2.86625 0.3125 3.3125 C-2.96134407 4.91395764 -2.96134407 4.91395764 -5.75 6.75 C-6.86375 7.36875 -6.86375 7.36875 -8 8 C-8.66 7.67 -9.32 7.34 -10 7 C-6.7 4.69 -3.4 2.38 0 0 Z " fill="#379BCC" transform="translate(356,141)"/>
<path d="M0 0 C4 2 4 2 5.8125 5.4375 C7 9 7 9 6 12 C4.02 8.04 2.04 4.08 0 0 Z " fill="#3E99CA" transform="translate(222,489)"/>
<path d="M0 0 C-2 2 -2 2 -4.6015625 2.1953125 C-5.59929687 2.17210937 -6.59703125 2.14890625 -7.625 2.125 C-9.12933594 2.09792969 -9.12933594 2.09792969 -10.6640625 2.0703125 C-11.43492187 2.04710937 -12.20578125 2.02390625 -13 2 C-8.53448096 -0.31790713 -4.94391187 -1.64797062 0 0 Z " fill="#46A0CE" transform="translate(228,198)"/>
<path d="M0 0 C1.46184058 0.22860058 2.91955419 0.48370392 4.375 0.75 C5.59316406 0.95882812 5.59316406 0.95882812 6.8359375 1.171875 C9 2 9 2 10.2890625 4.078125 C10.64097656 5.02945313 10.64097656 5.02945313 11 6 C7.61121488 6 6.60242783 5.35638802 3.8125 3.5625 C2.73935547 2.88380859 2.73935547 2.88380859 1.64453125 2.19140625 C1.10183594 1.79824219 0.55914062 1.40507813 0 1 C0 0.67 0 0.34 0 0 Z " fill="#449BCC" transform="translate(338,609)"/>
<path d="M0 0 C0.66 0.33 1.32 0.66 2 1 C-0.31 3.97 -2.62 6.94 -5 10 C-6.24546405 7.50907189 -5.7767578 6.58919267 -5 4 C-4.01 4 -3.02 4 -2 4 C-1.34 2.68 -0.68 1.36 0 0 Z " fill="#4398C9" transform="translate(516,518)"/>
<path d="M0 0 C0.66 0.33 1.32 0.66 2 1 C0.35 2.98 -1.3 4.96 -3 7 C-5 6 -5 6 -6 4 C-4.02 2.68 -2.04 1.36 0 0 Z " fill="#DDF5FB" transform="translate(418,610)"/>
<path d="M0 0 C-5.875 5 -5.875 5 -7 5 C-7 3.35 -7 1.7 -7 0 C-3.86650268 -1.04449911 -3.01031744 -0.93423645 0 0 Z " fill="#3D9ACE" transform="translate(469,573)"/>
<path d="M0 0 C0.8971875 0.309375 0.8971875 0.309375 1.8125 0.625 C0.55010288 1.49158615 -0.72277501 2.34292059 -2 3.1875 C-3.06154297 3.90099609 -3.06154297 3.90099609 -4.14453125 4.62890625 C-6.1875 5.625 -6.1875 5.625 -9.1875 4.625 C-2.52118644 -0.43220339 -2.52118644 -0.43220339 0 0 Z " fill="#D3F5FB" transform="translate(347.1875,146.375)"/>
<path d="M0 0 C7.57142857 4.14285714 7.57142857 4.14285714 10 7 C7.36 6.67 4.72 6.34 2 6 C2 4.68 2 3.36 2 2 C1.34 2 0.68 2 0 2 C0 1.34 0 0.68 0 0 Z " fill="#449DCC" transform="translate(395,137)"/>
<path d="M0 0 C0.66 0.33 1.32 0.66 2 1 C-0.83430453 4.2542015 -2.68607774 5.5206753 -7 6 C-4.74259377 3.66475218 -2.7194239 1.81294927 0 0 Z " fill="#D9F3FC" transform="translate(430,602)"/>
<path d="M0 0 C2.125 0.375 2.125 0.375 4 1 C4 1.66 4 2.32 4 3 C1.5 4.625 1.5 4.625 -1 6 C-1.625 4.125 -1.625 4.125 -2 2 C-1.34 1.34 -0.68 0.68 0 0 Z " fill="#3296CE" transform="translate(472,564)"/>
<path d="M0 0 C0.33 0.66 0.66 1.32 1 2 C-2.47307692 7.82980769 -2.47307692 7.82980769 -5.140625 8.69140625 C-5.75421875 8.79324219 -6.3678125 8.89507813 -7 9 C-6.02180976 7.68677212 -5.0424189 6.37443848 -4.0625 5.0625 C-3.51722656 4.33160156 -2.97195313 3.60070312 -2.41015625 2.84765625 C-1 1 -1 1 0 0 Z " fill="#CFF1FB" transform="translate(502,538)"/>
<path d="M0 0 C0 0.66 0 1.32 0 2 C-0.99 2 -1.98 2 -3 2 C-3 2.66 -3 3.32 -3 4 C-4.98 4.99 -4.98 4.99 -7 6 C-7.66 5.34 -8.32 4.68 -9 4 C-2.25 0 -2.25 0 0 0 Z " fill="#D5F2FB" transform="translate(393,626)"/>
<path d="M0 0 C0.33 1.65 0.66 3.3 1 5 C-3.875 3.25 -3.875 3.25 -5 1 C-2 0 -2 0 0 0 Z " fill="#3798CA" transform="translate(369,623)"/>
<path d="M0 0 C2.64 1.65 5.28 3.3 8 5 C6.68 5.33 5.36 5.66 4 6 C1.75 4.1875 1.75 4.1875 0 2 C0 1.34 0 0.68 0 0 Z " fill="#D8F4FB" transform="translate(310,590)"/>
<path d="M0 0 C0.99 0.33 1.98 0.66 3 1 C0.03 3.475 0.03 3.475 -3 6 C-3.33 5.01 -3.66 4.02 -4 3 C-2.68 2.67 -1.36 2.34 0 2 C0 1.34 0 0.68 0 0 Z " fill="#4099CC" transform="translate(456,580)"/>
</svg>
